<svg width="342" height="35" viewBox="0 0 342 35" fill="none" xmlns="http://www.w3.org/2000/svg">
<path d="M0 0.1C0.441737 1.77491 1.32392 3.30098 2.5549 4.51965C3.78588 5.73831 5.32073 6.60512 7 7.03H17.93L18.49 7.25V34.83H25.31V7.29L25.93 7.07H36.87C38.5437 6.63369 40.0725 5.76305 41.3017 4.54615C42.5309 3.32925 43.4169 1.80927 43.87 0.14V0.07H0V0.1ZM238.61 0.06H231.81V34.91H262.95C264.425 34.339 265.738 33.4151 266.774 32.2192C267.809 31.0232 268.536 29.5918 268.89 28.05H238.59L238.61 0.06V0.06ZM186.28 6.92C189.9 5.92 192.94 3.1 193.67 0.04L155.57 0.1V20.65H186.74V27.88H162.28C160.415 28.3634 158.674 29.2374 157.173 30.4441C155.671 31.6509 154.443 33.1629 153.57 34.88H193.46V13.81H162.3V6.92H186.28V6.92ZM302.45 34.89H309.21V20.87H333.79V34.89H340.54V13.87L302.45 13.83V34.89ZM85.35 7H111.35C113.053 6.59025 114.611 5.72083 115.855 4.48651C117.098 3.25218 117.978 1.7003 118.4 0L78.3 0C78.7259 1.69833 79.6078 3.24803 80.8503 4.48171C82.0927 5.71539 83.6487 6.58617 85.35 7V7ZM85.35 20.77H111.35C113.052 20.3582 114.609 19.4881 115.852 18.2541C117.095 17.0201 117.976 15.4693 118.4 13.77H78.3C78.728 15.4674 79.6104 17.016 80.8526 18.2493C82.0948 19.4827 83.6496 20.3541 85.35 20.77V20.77ZM85.35 34.91H111.35C113.052 34.4982 114.609 33.6281 115.852 32.3941C117.095 31.1601 117.976 29.6093 118.4 27.91H78.3C78.7269 29.6078 79.6091 31.157 80.8514 32.3905C82.0938 33.624 83.6492 34.4952 85.35 34.91ZM308.46 7.02H334.46C336.165 6.61084 337.724 5.7418 338.969 4.50752C340.214 3.27325 341.096 1.72106 341.52 0.02H301.41C301.834 1.71931 302.715 3.2701 303.958 4.5041C305.201 5.7381 306.758 6.6082 308.46 7.02V7.02Z" fill="black"/>
</svg>
